# Blender 4.2.0
# www.blender.org
mtllib fence1.3.mtl
o fence3_Cube.004
v 0.066565 7.486152 -0.219294
v 0.066565 -0.084351 -0.219293
v 0.066565 7.242652 0.219292
v 0.066565 -0.084351 0.219293
v -0.705805 7.486152 -0.219294
v -0.705805 -0.084351 -0.219293
v -0.705805 7.242652 0.219292
v -0.705805 -0.084351 0.219293
v 10.551561 6.188237 0.221694
v -0.301880 6.115903 0.221695
v 10.551561 6.188237 0.597760
v -0.301880 6.115903 0.597760
v 10.551561 6.786131 0.221694
v -0.301880 6.713796 0.221695
v 10.551561 6.786130 0.597760
v -0.301880 6.713796 0.597760
vn 0.5553 0.7167 -0.4219
vn -0.5553 0.7167 -0.4219
vn -0.6088 0.4024 0.6837
vn 0.6088 0.4024 0.6837
vn 0.5774 -0.5774 0.5774
vn -0.5774 -0.5774 0.5774
vn -0.5774 -0.5774 -0.5774
vn 0.5774 -0.5774 -0.5774
vn 0.5791 -0.5752 -0.5777
vn 0.5756 0.5794 -0.5770
vn 0.5756 0.5794 0.5770
vn 0.5791 -0.5752 0.5777
vn -0.5756 -0.5794 0.5770
vn -0.5791 0.5752 0.5777
vn -0.5791 0.5752 -0.5777
vn -0.5756 -0.5794 -0.5770
vt 0.689081 0.897351
vt 0.654745 0.897351
vt 0.654745 0.875050
vt 0.689081 0.875050
vt 0.689081 0.549327
vt 0.654745 0.549327
vt 0.635248 0.885875
vt 0.635248 0.549327
vt 0.654745 0.529830
vt 0.689081 0.529830
vt 0.708578 0.549327
vt 0.708578 0.885875
vt 0.600912 0.885875
vt 0.600913 0.549327
vt 0.819751 0.000536
vt 0.846330 0.000359
vt 0.846441 0.017076
vt 0.819862 0.017253
vt 0.819861 0.499751
vt 0.846440 0.499574
vt 0.863159 0.017076
vt 0.863159 0.499574
vt 0.846551 0.516291
vt 0.819972 0.516469
vt 0.803142 0.499751
vt 0.803145 0.017253
vt 0.889738 0.017253
vt 0.889738 0.499751
s 1
usemtl Material.003
f 1/1/1 5/2/2 7/3/3 3/4/4
f 4/5/5 3/4/4 7/3/3 8/6/6
f 8/6/6 7/3/3 5/7/2 6/8/7
f 6/9/7 2/10/8 4/5/5 8/6/6
f 2/11/8 1/12/1 3/4/4 4/5/5
f 6/8/7 5/7/2 1/13/1 2/14/8
f 9/15/9 13/16/10 15/17/11 11/18/12
f 12/19/13 11/18/12 15/17/11 16/20/14
f 16/20/14 15/17/11 13/21/10 14/22/15
f 14/23/15 10/24/16 12/19/13 16/20/14
f 10/25/16 9/26/9 11/18/12 12/19/13
f 14/22/15 13/21/10 9/27/9 10/28/16
o fence5_Cube.005
v -10.798820 7.486152 -0.219294
v -10.798820 -0.084351 -0.219293
v -10.798820 7.242652 0.219292
v -10.798820 -0.084351 0.219293
v -11.571190 7.486152 -0.219294
v -11.571190 -0.084351 -0.219293
v -11.571190 7.242652 0.219292
v -11.571190 -0.084351 0.219293
v -0.313824 6.058855 0.221694
v -11.167263 6.199436 0.221695
v -0.313824 6.058855 0.597760
v -11.167263 6.199436 0.597760
v -0.313824 6.656748 0.221694
v -11.167263 6.797329 0.221695
v -0.313824 6.656748 0.597760
v -11.167263 6.797329 0.597760
v -0.313824 3.307707 0.221694
v -11.167263 3.337228 0.221696
v -0.313824 3.307707 0.597760
v -11.167263 3.337228 0.597760
v -0.313824 3.905600 0.221694
v -11.167263 3.935121 0.221695
v -0.313824 3.905600 0.597760
v -11.167263 3.935121 0.597760
vn 0.5553 0.7167 -0.4219
vn -0.5553 0.7167 -0.4219
vn -0.6088 0.4024 0.6837
vn 0.6088 0.4024 0.6837
vn 0.5774 -0.5774 0.5774
vn -0.5774 -0.5774 0.5774
vn -0.5774 -0.5774 -0.5774
vn 0.5774 -0.5774 -0.5774
vn 0.5739 -0.5814 -0.5767
vn 0.5807 0.5733 -0.5780
vn 0.5807 0.5733 0.5780
vn 0.5739 -0.5814 0.5767
vn -0.5807 -0.5733 0.5780
vn -0.5739 0.5814 0.5767
vn -0.5739 0.5814 -0.5767
vn -0.5807 -0.5733 -0.5780
vn 0.5766 -0.5782 -0.5772
vn 0.5781 0.5765 -0.5775
vn 0.5781 0.5765 0.5775
vn 0.5766 -0.5782 0.5772
vn -0.5781 -0.5765 0.5775
vn -0.5766 0.5782 0.5772
vn -0.5766 0.5782 -0.5772
vn -0.5781 -0.5765 -0.5775
vt 0.569519 0.984140
vt 0.534606 0.984140
vt 0.534606 0.961464
vt 0.569519 0.961464
vt 0.569519 0.630265
vt 0.534606 0.630265
vt 0.514781 0.972471
vt 0.514781 0.630265
vt 0.534606 0.610440
vt 0.569519 0.610440
vt 0.589344 0.630265
vt 0.589344 0.972471
vt 0.479868 0.972471
vt 0.479868 0.630265
vt 0.252585 0.525346
vt 0.225560 0.524996
vt 0.225780 0.507998
vt 0.252805 0.508348
vt 0.252805 0.017707
vt 0.225781 0.017357
vt 0.208781 0.507998
vt 0.208782 0.017357
vt 0.226001 0.000359
vt 0.253026 0.000709
vt 0.269804 0.017707
vt 0.269804 0.508348
vt 0.181757 0.508348
vt 0.181758 0.017707
vt 0.696611 0.525033
vt 0.669584 0.524959
vt 0.669631 0.507960
vt 0.696657 0.508034
vt 0.696657 0.017431
vt 0.669631 0.017358
vt 0.652632 0.507960
vt 0.652632 0.017358
vt 0.669677 0.000359
vt 0.696704 0.000432
vt 0.713656 0.017431
vt 0.713656 0.508034
vt 0.625605 0.508034
vt 0.625605 0.017431
s 1
usemtl Material.003
f 17/29/17 21/30/18 23/31/19 19/32/20
f 20/33/21 19/32/20 23/31/19 24/34/22
f 24/34/22 23/31/19 21/35/18 22/36/23
f 22/37/23 18/38/24 20/33/21 24/34/22
f 18/39/24 17/40/17 19/32/20 20/33/21
f 22/36/23 21/35/18 17/41/17 18/42/24
f 25/43/25 29/44/26 31/45/27 27/46/28
f 28/47/29 27/46/28 31/45/27 32/48/30
f 32/48/30 31/45/27 29/49/26 30/50/31
f 30/51/31 26/52/32 28/47/29 32/48/30
f 26/53/32 25/54/25 27/46/28 28/47/29
f 30/50/31 29/49/26 25/55/25 26/56/32
f 33/57/33 37/58/34 39/59/35 35/60/36
f 36/61/37 35/60/36 39/59/35 40/62/38
f 40/62/38 39/59/35 37/63/34 38/64/39
f 38/65/39 34/66/40 36/61/37 40/62/38
f 34/67/40 33/68/33 35/60/36 36/61/37
f 38/64/39 37/63/34 33/69/33 34/70/40
o fence6_Cube.006
v 10.931948 7.486152 -0.219294
v 10.931948 -0.084351 -0.219293
v 10.931948 7.242652 0.219292
v 10.931948 -0.084351 0.219293
v 10.159578 7.486152 -0.219294
v 10.159578 -0.084351 -0.219293
v 10.159578 7.242652 0.219292
v 10.159578 -0.084351 0.219293
v 21.416945 6.188237 0.221694
v 10.563505 6.188237 0.221695
v 21.416945 6.188237 0.597760
v 10.563505 6.188237 0.597760
v 21.416945 6.786131 0.221694
v 10.563505 6.786131 0.221695
v 21.416945 6.786130 0.597760
v 10.563505 6.786131 0.597760
v 21.416945 3.247797 0.221694
v 10.563505 3.247797 0.221696
v 21.416945 3.247796 0.597760
v 10.563505 3.247797 0.597760
v 21.416945 3.845690 0.221694
v 10.563505 3.845690 0.221695
v 21.416945 3.845688 0.597760
v 10.563505 3.845690 0.597760
vn 0.5553 0.7167 -0.4219
vn -0.5553 0.7167 -0.4219
vn -0.6088 0.4024 0.6837
vn 0.6088 0.4024 0.6837
vn 0.5774 -0.5774 0.5774
vn -0.5774 -0.5774 0.5774
vn -0.5774 -0.5774 -0.5774
vn 0.5774 -0.5774 -0.5774
vn 0.5773 0.5774 -0.5773
vn 0.5774 0.5773 0.5774
vn -0.5773 0.5773 0.5774
vn -0.5774 0.5774 -0.5773
vn 0.5774 -0.5773 -0.5774
vn 0.5773 -0.5774 0.5773
vn -0.5774 -0.5774 0.5773
vn -0.5773 -0.5773 -0.5774
vt 0.374847 0.758360
vt 0.374847 0.793272
vt 0.352171 0.793272
vt 0.352171 0.758360
vt 0.020972 0.758360
vt 0.020972 0.793273
vt 0.363178 0.813098
vt 0.020972 0.813098
vt 0.001147 0.793273
vt 0.001147 0.758360
vt 0.020972 0.738535
vt 0.363178 0.738534
vt 0.363178 0.848011
vt 0.020972 0.848010
vt 0.525746 0.554173
vt 0.525746 0.581199
vt 0.508747 0.581199
vt 0.508747 0.554173
vt 0.018146 0.554173
vt 0.018146 0.581199
vt 0.508747 0.598198
vt 0.018146 0.598198
vt 0.001147 0.581199
vt 0.001147 0.554173
vt 0.018146 0.537173
vt 0.508747 0.537174
vt 0.508747 0.625224
vt 0.018146 0.625225
vt 0.731374 0.000359
vt 0.758400 0.000359
vt 0.758400 0.017358
vt 0.731374 0.017357
vt 0.731373 0.507958
vt 0.758399 0.507958
vt 0.775399 0.017358
vt 0.775399 0.507958
vt 0.758399 0.524957
vt 0.731373 0.524957
vt 0.714373 0.507958
vt 0.714375 0.017358
vt 0.802425 0.017358
vt 0.802425 0.507958
s 1
usemtl Material.003
f 41/71/41 45/72/42 47/73/43 43/74/44
f 44/75/45 43/74/44 47/73/43 48/76/46
f 48/76/46 47/73/43 45/77/42 46/78/47
f 46/79/47 42/80/48 44/75/45 48/76/46
f 42/81/48 41/82/41 43/74/44 44/75/45
f 46/78/47 45/77/42 41/83/41 42/84/48
f 49/85/48 53/86/49 55/87/50 51/88/45
f 52/89/46 51/88/45 55/87/50 56/90/51
f 56/90/51 55/87/50 53/91/49 54/92/52
f 54/93/52 50/94/47 52/89/46 56/90/51
f 50/95/47 49/96/48 51/88/45 52/89/46
f 54/92/52 53/91/49 49/97/48 50/98/47
f 57/99/53 61/100/49 63/101/50 59/102/54
f 60/103/55 59/102/54 63/101/50 64/104/51
f 64/104/51 63/101/50 61/105/49 62/106/52
f 62/107/52 58/108/56 60/103/55 64/104/51
f 58/109/56 57/110/53 59/102/54 60/103/55
f 62/106/52 61/105/49 57/111/53 58/112/56
o gatepost_Cube.017
v -12.240553 7.364403 -0.472828
v -12.240553 -0.084351 -0.472827
v -12.240553 7.364403 0.495596
v -12.240553 -0.084351 0.495597
v -13.223927 7.364403 -0.472828
v -13.223927 -0.084351 -0.472827
v -13.223927 7.364403 0.495596
v -13.223927 -0.084351 0.495597
vn 0.5774 0.5774 -0.5774
vn -0.5774 0.5774 -0.5774
vn -0.5774 0.5774 0.5774
vn 0.5774 0.5774 0.5774
vn 0.5774 -0.5774 0.5774
vn -0.5774 -0.5774 0.5774
vn -0.5774 -0.5774 -0.5774
vn 0.5774 -0.5774 -0.5774
vt 0.849978 0.517478
vt 0.795793 0.517478
vt 0.795793 0.464116
vt 0.849978 0.464116
vt 0.849979 0.053679
vt 0.795793 0.053679
vt 0.742431 0.464116
vt 0.742431 0.053679
vt 0.795793 0.000317
vt 0.849979 0.000317
vt 0.903340 0.053679
vt 0.903340 0.464116
vt 0.688246 0.464116
vt 0.688246 0.053679
s 1
usemtl Material1
f 65/113/57 69/114/58 71/115/59 67/116/60
f 68/117/61 67/116/60 71/115/59 72/118/62
f 72/118/62 71/115/59 69/119/58 70/120/63
f 70/121/63 66/122/64 68/117/61 72/118/62
f 66/123/64 65/124/57 67/116/60 68/117/61
f 70/120/63 69/119/58 65/125/57 66/126/64
