# Blender 4.2.0
# www.blender.org
mtllib village-house6.14.mtl
o Cube.014_Cube.015
v 2.274522 0.718173 1.828877
v 2.274522 -0.501593 1.828877
v 2.274522 0.718173 1.862571
v 2.274522 -0.501593 1.862571
v 2.240828 0.718173 1.828877
v 2.240828 -0.501593 1.828877
v 2.240828 0.718173 1.862571
v 2.240828 -0.501593 1.862571
v 2.278583 0.542482 2.046674
v 2.278583 0.685601 2.046674
v 2.278583 0.542482 1.642198
v 2.278583 0.685601 1.642198
v 2.299651 0.542482 2.046674
v 2.299651 0.685601 2.046674
v 2.299651 0.542482 1.642198
v 2.299651 0.685601 1.642198
v 2.278583 0.551427 2.046674
v 2.278583 0.560372 2.034940
v 2.278583 0.569317 2.034940
v 2.278583 0.578262 2.046674
v 2.278583 0.587207 2.046674
v 2.278583 0.596152 2.046674
v 2.278583 0.605097 2.046674
v 2.278583 0.614041 2.004168
v 2.278583 0.622986 2.004168
v 2.278583 0.631931 2.046674
v 2.278583 0.640876 2.046674
v 2.278583 0.649821 2.046674
v 2.278583 0.658766 2.046674
v 2.278583 0.667711 2.046674
v 2.278583 0.676656 2.046674
v 2.278583 0.676656 1.642198
v 2.278583 0.667711 1.659586
v 2.278583 0.658766 1.659586
v 2.278583 0.649821 1.776079
v 2.278583 0.640876 1.642198
v 2.278583 0.631931 1.642198
v 2.278583 0.622986 1.642198
v 2.278583 0.614041 1.642198
v 2.278583 0.605096 1.642198
v 2.278583 0.596151 1.705536
v 2.278583 0.587206 1.642198
v 2.278583 0.578261 1.642198
v 2.278583 0.569317 1.654716
v 2.278583 0.560372 1.654716
v 2.278583 0.551427 1.642198
v 2.299651 0.676656 1.642198
v 2.299651 0.667711 1.659586
v 2.299651 0.658766 1.659586
v 2.299651 0.649821 1.776079
v 2.299651 0.640876 1.642198
v 2.299651 0.631931 1.642198
v 2.299651 0.622986 1.642198
v 2.299651 0.614041 1.642198
v 2.299651 0.605096 1.642198
v 2.299651 0.596151 1.705536
v 2.299651 0.587206 1.642198
v 2.299651 0.578261 1.642198
v 2.299651 0.569317 1.654716
v 2.299651 0.560372 1.654716
v 2.299651 0.551427 1.642198
v 2.299651 0.676656 2.046674
v 2.299651 0.667711 2.046674
v 2.299651 0.658766 2.046674
v 2.299651 0.649821 2.046674
v 2.299651 0.640876 2.046674
v 2.299651 0.631931 2.046674
v 2.299651 0.622986 2.004168
v 2.299651 0.614041 2.004168
v 2.299651 0.605096 2.046674
v 2.299651 0.596151 2.046674
v 2.299651 0.587206 2.046674
v 2.299651 0.578261 2.046674
v 2.299651 0.569317 2.034940
v 2.299651 0.560372 2.034940
v 2.299651 0.551427 2.046674
v 2.278583 0.652803 2.046674
v 2.278583 0.655784 2.046674
v 2.278583 0.655784 1.642198
v 2.278583 0.652803 1.642198
v 2.299651 0.655784 1.642198
v 2.299651 0.652803 1.642198
v 2.299651 0.655784 2.046674
v 2.299651 0.652803 2.046674
v 2.278583 0.590188 2.046674
v 2.278583 0.593170 2.046674
v 2.278583 0.593170 1.705536
v 2.278583 0.590188 1.642198
v 2.299651 0.593170 1.705536
v 2.299651 0.590188 1.642198
v 2.299651 0.593170 2.046674
v 2.299651 0.590188 2.046674
v 2.278583 0.648629 2.046674
v 2.278583 0.648628 1.776079
v 2.299651 0.648628 1.776079
v 2.299651 0.648628 2.046674
v 2.278583 0.644752 1.642198
v 2.299651 0.644752 1.642198
v 2.299651 0.644752 2.046674
v 2.278583 0.644752 2.046674
vn 1.0000 -0.0000 -0.0000
vn -0.0000 -0.0000 1.0000
vn -1.0000 -0.0000 -0.0000
vn -0.0000 -0.0000 -1.0000
vn -0.0000 1.0000 -0.0000
vn -0.0000 -1.0000 -0.0000
vn -0.0000 0.7953 0.6062
vn -0.0000 -0.7953 0.6062
vn -0.0000 0.9786 0.2059
vn -0.0000 -0.9786 0.2059
vn -0.0000 0.8136 -0.5814
vn -0.0000 -0.8137 -0.5814
vn -0.0000 -0.9902 -0.1398
vn -0.0000 0.9856 -0.1690
vn -0.0000 -0.8892 -0.4575
vn -0.0000 -0.9998 -0.0223
vn -0.0000 0.9989 -0.0470
vn -0.0000 0.9996 -0.0289
vt 0.375000 0.000000
vt 0.375000 0.250000
vt 0.625000 0.250000
vt 0.625000 0.000000
vt 0.375000 0.500000
vt 0.625000 0.500000
vt 0.375000 0.750000
vt 0.625000 0.750000
vt 0.375000 1.000000
vt 0.625000 1.000000
vt 0.125000 0.500000
vt 0.125000 0.750000
vt 0.875000 0.750000
vt 0.875000 0.500000
vt 0.609375 0.000000
vt 0.609375 0.250000
vt 0.609375 0.500000
vt 0.609375 0.750000
vt 0.609375 1.000000
vt 0.390625 0.750000
vt 0.390625 1.000000
vt 0.406250 0.750000
vt 0.406250 1.000000
vt 0.421875 0.750000
vt 0.421875 1.000000
vt 0.437500 0.750000
vt 0.437500 1.000000
vt 0.453125 0.750000
vt 0.453125 1.000000
vt 0.463542 0.750000
vt 0.468750 0.750000
vt 0.468750 1.000000
vt 0.463542 1.000000
vt 0.484375 0.750000
vt 0.484375 1.000000
vt 0.500000 0.750000
vt 0.500000 1.000000
vt 0.515625 0.750000
vt 0.515625 1.000000
vt 0.531250 0.750000
vt 0.531250 1.000000
vt 0.546875 0.750000
vt 0.546875 1.000000
vt 0.560417 0.750000
vt 0.562500 0.750000
vt 0.562500 1.000000
vt 0.560417 1.000000
vt 0.572917 0.750000
vt 0.578125 0.750000
vt 0.578125 1.000000
vt 0.572917 1.000000
vt 0.593750 0.750000
vt 0.593750 1.000000
vt 0.390625 0.500000
vt 0.406250 0.500000
vt 0.421875 0.500000
vt 0.437500 0.500000
vt 0.453125 0.500000
vt 0.463542 0.500000
vt 0.468750 0.500000
vt 0.484375 0.500000
vt 0.500000 0.500000
vt 0.515625 0.500000
vt 0.531250 0.500000
vt 0.546875 0.500000
vt 0.560417 0.500000
vt 0.562500 0.500000
vt 0.572917 0.500000
vt 0.578125 0.500000
vt 0.593750 0.500000
vt 0.390625 0.250000
vt 0.406250 0.250000
vt 0.421875 0.250000
vt 0.437500 0.250000
vt 0.453125 0.250000
vt 0.463542 0.250000
vt 0.468750 0.250000
vt 0.484375 0.250000
vt 0.500000 0.250000
vt 0.515625 0.250000
vt 0.531250 0.250000
vt 0.546875 0.250000
vt 0.560417 0.250000
vt 0.562500 0.250000
vt 0.572917 0.250000
vt 0.578125 0.250000
vt 0.593750 0.250000
vt 0.390625 0.000000
vt 0.406250 0.000000
vt 0.421875 0.000000
vt 0.437500 0.000000
vt 0.453125 0.000000
vt 0.463542 0.000000
vt 0.468750 0.000000
vt 0.484375 0.000000
vt 0.500000 0.000000
vt 0.515625 0.000000
vt 0.531250 0.000000
vt 0.546875 0.000000
vt 0.560417 0.000000
vt 0.562500 0.000000
vt 0.572917 0.000000
vt 0.578125 0.000000
vt 0.593750 0.000000
vt 0.567708 0.000000
vt 0.567708 0.250000
vt 0.567708 0.500000
vt 0.567708 0.750000
vt 0.567708 1.000000
vt 0.458333 0.000000
vt 0.458333 0.250000
vt 0.458333 0.500000
vt 0.458333 0.750000
vt 0.458333 1.000000
vt 0.553646 0.000000
vt 0.553646 0.250000
vt 0.553646 0.500000
vt 0.553646 0.750000
vt 0.553646 1.000000
s 0
usemtl (null).001
f 1/1/1 3/2/1 4/3/1 2/4/1
f 3/2/2 7/5/2 8/6/2 4/3/2
f 7/5/3 5/7/3 6/8/3 8/6/3
f 5/7/4 1/9/4 2/10/4 6/8/4
f 3/11/5 1/12/5 5/7/5 7/5/5
f 8/6/6 6/8/6 2/13/6 4/14/6
f 31/15/3 10/4/3 12/3/3 32/16/3
f 32/16/4 12/3/4 16/6/4 47/17/4
f 47/17/1 16/6/1 14/8/1 62/18/1
f 62/18/2 14/8/2 10/10/2 31/19/2
f 11/11/6 15/5/6 13/7/6 9/12/6
f 16/6/5 12/14/5 10/13/5 14/8/5
f 13/7/2 76/20/2 17/21/2 9/9/2
f 76/20/7 75/22/7 18/23/7 17/21/7
f 75/22/2 74/24/2 19/25/2 18/23/2
f 74/24/8 73/26/8 20/27/8 19/25/8
f 73/26/2 72/28/2 21/29/2 20/27/2
f 91/30/2 71/31/2 22/32/2 86/33/2
f 71/31/2 70/34/2 23/35/2 22/32/2
f 70/34/9 69/36/9 24/37/9 23/35/9
f 69/36/2 68/38/2 25/39/2 24/37/2
f 68/38/10 67/40/10 26/41/10 25/39/10
f 67/40/2 66/42/2 27/43/2 26/41/2
f 96/44/2 65/45/2 28/46/2 93/47/2
f 83/48/2 64/49/2 29/50/2 78/51/2
f 64/49/2 63/52/2 30/53/2 29/50/2
f 63/52/2 62/18/2 31/19/2 30/53/2
f 15/5/1 61/54/1 76/20/1 13/7/1
f 61/54/1 60/55/1 75/22/1 76/20/1
f 60/55/1 59/56/1 74/24/1 75/22/1
f 59/56/1 58/57/1 73/26/1 74/24/1
f 58/57/1 57/58/1 72/28/1 73/26/1
f 89/59/1 56/60/1 71/31/1 91/30/1
f 56/60/1 55/61/1 70/34/1 71/31/1
f 55/61/1 54/62/1 69/36/1 70/34/1
f 54/62/1 53/63/1 68/38/1 69/36/1
f 53/63/1 52/64/1 67/40/1 68/38/1
f 52/64/1 51/65/1 66/42/1 67/40/1
f 95/66/1 50/67/1 65/45/1 96/44/1
f 81/68/1 49/69/1 64/49/1 83/48/1
f 49/69/1 48/70/1 63/52/1 64/49/1
f 48/70/1 47/17/1 62/18/1 63/52/1
f 11/2/4 46/71/4 61/54/4 15/5/4
f 46/71/11 45/72/11 60/55/11 61/54/11
f 45/72/4 44/73/4 59/56/4 60/55/4
f 44/73/12 43/74/12 58/57/12 59/56/12
f 43/74/4 42/75/4 57/58/4 58/57/4
f 87/76/4 41/77/4 56/60/4 89/59/4
f 41/77/13 40/78/13 55/61/13 56/60/13
f 40/78/4 39/79/4 54/62/4 55/61/4
f 39/79/4 38/80/4 53/63/4 54/62/4
f 38/80/4 37/81/4 52/64/4 53/63/4
f 37/81/4 36/82/4 51/65/4 52/64/4
f 94/83/4 35/84/4 50/67/4 95/66/4
f 79/85/14 34/86/14 49/69/14 81/68/14
f 34/86/4 33/87/4 48/70/4 49/69/4
f 33/87/15 32/16/15 47/17/15 48/70/15
f 9/1/3 17/88/3 46/71/3 11/2/3
f 17/88/3 18/89/3 45/72/3 46/71/3
f 18/89/3 19/90/3 44/73/3 45/72/3
f 19/90/3 20/91/3 43/74/3 44/73/3
f 20/91/3 21/92/3 42/75/3 43/74/3
f 86/93/3 22/94/3 41/77/3 87/76/3
f 22/94/3 23/95/3 40/78/3 41/77/3
f 23/95/3 24/96/3 39/79/3 40/78/3
f 24/96/3 25/97/3 38/80/3 39/79/3
f 25/97/3 26/98/3 37/81/3 38/80/3
f 26/98/3 27/99/3 36/82/3 37/81/3
f 93/100/3 28/101/3 35/84/3 94/83/3
f 78/102/3 29/103/3 34/86/3 79/85/3
f 29/103/3 30/104/3 33/87/3 34/86/3
f 30/104/3 31/15/3 32/16/3 33/87/3
f 28/101/3 77/105/3 80/106/3 35/84/3
f 77/105/3 78/102/3 79/85/3 80/106/3
f 35/84/16 80/106/16 82/107/16 50/67/16
f 80/106/4 79/85/4 81/68/4 82/107/4
f 50/67/1 82/107/1 84/108/1 65/45/1
f 82/107/1 81/68/1 83/48/1 84/108/1
f 65/45/2 84/108/2 77/109/2 28/46/2
f 84/108/2 83/48/2 78/51/2 77/109/2
f 21/92/3 85/110/3 88/111/3 42/75/3
f 85/110/3 86/93/3 87/76/3 88/111/3
f 42/75/4 88/111/4 90/112/4 57/58/4
f 88/111/17 87/76/17 89/59/17 90/112/17
f 57/58/1 90/112/1 92/113/1 72/28/1
f 90/112/1 89/59/1 91/30/1 92/113/1
f 72/28/2 92/113/2 85/114/2 21/29/2
f 92/113/2 91/30/2 86/33/2 85/114/2
f 100/115/3 93/100/3 94/83/3 97/116/3
f 97/116/18 94/83/18 95/66/18 98/117/18
f 98/117/1 95/66/1 96/44/1 99/118/1
f 99/118/2 96/44/2 93/47/2 100/119/2
f 66/42/2 99/118/2 100/119/2 27/43/2
f 51/65/1 98/117/1 99/118/1 66/42/1
f 36/82/4 97/116/4 98/117/4 51/65/4
f 27/99/3 100/115/3 97/116/3 36/82/3
